<?xml version="1.0" encoding="UTF-8" standalone="no"?>
<svg
   id="Layer_1"
   viewBox="0 0 207.8128 218.48475"
   width="970"
   height="1020"
   version="1.1"
   sodipodi:docname="masterchef-logo.svg"
   inkscape:version="1.1.1 (3bf5ae0d25, 2021-09-20)"
   xmlns:inkscape="http://www.inkscape.org/namespaces/inkscape"
   xmlns:sodipodi="http://sodipodi.sourceforge.net/DTD/sodipodi-0.dtd"
   xmlns="http://www.w3.org/2000/svg"
   xmlns:svg="http://www.w3.org/2000/svg">
  <defs
     id="defs11" />
  <sodipodi:namedview
     id="namedview9"
     pagecolor="#ffffff"
     bordercolor="#666666"
     borderopacity="1.0"
     inkscape:pageshadow="2"
     inkscape:pageopacity="0.0"
     inkscape:pagecheckerboard="0"
     showgrid="false"
     inkscape:zoom="0.31734952"
     inkscape:cx="1137.547"
     inkscape:cy="704.27079"
     inkscape:window-width="1920"
     inkscape:window-height="1017"
     inkscape:window-x="1912"
     inkscape:window-y="-8"
     inkscape:window-maximized="1"
     inkscape:current-layer="Layer_1" />
  <style
     id="style2">.st0{fill:#cd243b}</style>
  <path
     class="st0"
     d="m 201.55274,90.75055 c -2.2,-23.5 -11.8,-41.1 -22.8,-53.6 -11.1,-12.5 -23.5,-20.1 -31.8,-24.3 -5.3,-2.7 -11.9,-4.9000005 -19.2,-6.4000004 -7.3,-1.5 -15.4,-2.4 -23.8,-2.4 -11.400001,0 -23.400001,1.6 -34.500001,5.6999999 -13.9,5.1000005 -28.9,15.4000005 -41,30.5000005 -12.1,15.1 -21.0999997,35.3 -22.5999997,59.700004 -0.1,2.499996 -0.2,4.899996 -0.2,7.299996 0,22.6 6.5999997,40.9 15.0999997,55 8.5,14.1 18.9,23.9 26.5,30.2 8.7,7.1 19.3,12.1 28.1,15.2 21.9,7.6 36.500001,7.6 42.500001,7.6 5.4,0 8.4,-0.4 8.7,-0.4 v -0.1 c 2.4,-0.4 4.3,-2.5 4.3,-5 v -2.9 c 0,-2.8 -2.3,-5.1 -5,-5.1 -0.4,0 -0.7,0 -1.1,0.1 -0.2,0 -2.6,0.3 -6.8,0.3 -5.3,0 -21.200001,-0.4 -38.700001,-7.1 -7.8,-3 -17.2,-7.4 -23.7,-12.7 -6.9,-5.7 -16.2,-14.5 -23.6,-26.9 -7.5,-12.4 -13.2,-28.1 -13.2,-48.2 0,-2.1 0.1,-4.3 0.2,-6.5 1.3,-21.7 9.2,-39.1 19.8,-52.4 10.4,-13.2 23.7,-22.1 35.2,-26.3 9.3,-3.4 19.9,-4.9 30.000001,-4.9 7.5,0 14.8,0.8 21.2,2.1 6.4,1.3 12,3.2 16,5.3 7.3,3.7 18.3,10.5 27.8,21.3 9.5,10.9 17.6,25.6 19.6,46.2 0.2,2.2 0.3,4.4 0.3,6.600004 0,18.799996 -7.6,37.299996 -20.5,51.099996 -12.9,13.7 -30.8,22.6 -51.8,22.6 h -1.1 c -14.3,-0.2 -30.100001,-4 -42.800001,-13.6 -6.4,-4.8 -12.1,-11.1 -16.6,-19.3 -4.5,-8.3 -8,-18.5 -9.6,-31.3 v -0.2 c 0,-0.3 -0.3,-2.2 -0.3,-5.2 0,-5.299996 0.8,-14 4.5,-23.3 3.7,-9.4 10.3,-19.4 22.5,-28 7.3,-5.3 20.3,-9 33.400001,-8.9 11.2,0 22.4,2.6 30.8,7.9 11.1,7 17.8,15.9 21.8,24.8 4,8.9 5.3,17.8 5.3,24.200004 0,1.099996 0,2.099996 -0.1,3.099996 -0.4,6.3 -1.4,10.8 -2.6,14 -0.4,1.2 -1.1,3.1 -2.1,4.2 -1,1 -2.3,1.1 -2.5,0.8 -0.2,-0.3 -0.2,-0.7 -0.2,-1.1 0,-0.4 0.1,-1.6 0.1,-1.6 v -13 c 0,-8.399996 -0.1,-13.5 -0.6,-17.1 -0.2,-1.8 -0.6,-3.3 -1.1,-4.6 -0.5,-1.3 -1.3,-2.4 -2.1,-3.3 -1.6,-1.9 -3.7,-3.4 -6.7,-4.2 -3,-0.9 -6.9,-1.3 -12.7,-1.5 -0.5,0 -3.1,-0.1 -4.3,-0.1 h -0.3 c -0.8,0 -3,0.1 -3.5,0.1 -5.6,0.2 -9.5,0.6 -12.5,1.3 -2.1,0.5 -3.8,1.2 -5.3,2.2 -1.4,-0.9 -3,-1.7 -5,-2.2 -2.9,-0.7 -6.600001,-1.1 -11.900001,-1.3 -0.5,0 -3.1,-0.1 -4.3,-0.1 h -0.3 c -0.8,0 -3,0.1 -3.5,0.1 -6.1,0.2 -10.2,0.6 -13.3,1.5 -3.1,0.8 -5.3,2.3 -7,4.3 -0.8,0.9 -1.5,2 -2,3.3 -1.5,3.9 -1.7,9.1 -1.7,21.6 v 23.7 c 0,2.7 2.2,4.8 4.8,4.8 h 2.9 c 2.7,0 4.8,-2.2 4.8,-4.8 v -23.7 c 0,-7.199996 0,-11.4 0.2,-13.8 0.1,-1.2 0.2,-2 0.4,-2.5 0.1,-0.5 0.2,-0.6 0.4,-0.8 0.2,-0.2 0.4,-0.4 0.9,-0.6 1.5,-0.8 5.6,-1.3 13.5,-1.4 5.1,0.1 8.5,0.3 10.6,0.7 1.1,0.2 1.8,0.4 2.3,0.7 0.500001,0.2 0.700001,0.4 0.900001,0.7 l 0.1,0.1 c 0.2,0.2 0.3,0.3 0.4,0.8 0.2,0.6 0.4,2.1 0.5,4.6 0.1,2.6 0.1,6.3 0.1,11.6 v 23.8 c 0,2.6 2.2,4.8 4.8,4.8 h 2.9 c 2.6,0 4.8,-2.1 4.8,-4.8 v -23.8 c 0,-7.199996 0,-11.4 0.2,-13.8 0.1,-1.2 0.2,-2 0.4,-2.5 0.1,-0.5 0.2,-0.6 0.4,-0.8 0.2,-0.2 0.4,-0.4 0.9,-0.6 1.5,-0.8 5.6,-1.3 13.5,-1.4 5.1,0.1 8.5,0.3 10.6,0.7 1.1,0.2 1.8,0.4 2.3,0.7 0.5,0.2 0.7,0.4 0.9,0.7 l 0.1,0.1 c 0.2,0.2 0.3,0.3 0.4,0.8 0.2,0.6 0.4,2.1 0.5,4.6 0.1,2.6 0.1,6.3 0.1,11.6 v 18.1 c 0,0 -1.1,13.3 11,13.3 2.1,0 4.4,-0.5 6.8,-1.7 3.6,-1.8 7.2,-5.2 9.9,-10.4 2.7,-5.2 4.6,-12.2 5.2,-21.8 0.1,-1.2 0.1,-2.5 0.1,-3.899996 0,-8.100004 -1.5,-18.700004 -6.5,-29.600004 -4.9,-10.9 -13.3,-22 -26.7,-30.4 -11.2,-7 -24.7,-9.9 -37.8,-9.9 -15.400001,0.1 -30.400001,3.9 -41.000001,11.3 -14.3,10.1 -22.5,22.5 -27,33.8 -4.5,11.4 -5.4,21.7 -5.4,28.1 0,3.9 0.3,6.4 0.4,7.1 1.8,14.2 5.6,26.1 11.1,35.9 8.1,14.8 19.8,24.8 32.4,30.9 12.6,6.2 26.000001,8.6 38.300001,8.8 h 1.3 c 24.7,0 46.2,-10.6 61.3,-26.7 15.1,-16.1 24,-37.7 24,-59.999996 -0.1,-3.000004 -0.2,-5.600004 -0.4,-8.200004"
     id="path4"
     style="fill:#ffffff" />
</svg>
